<svg width="200" height="80" viewBox="0 0 200 80" fill="none" xmlns="http://www.w3.org/2000/svg">
<g clip-path="url(#clip0_1_7)">
<rect width="200" height="80" fill="transparent"/>
<path d="M50.2553 19.648V26.624H36.6233V64H28.4953V26.624H14.8633V19.648H50.2553ZM72.7813 46.4C72.7813 42.9013 72.3333 40.384 71.4373 38.848C70.5839 37.2693 68.9626 36.48 66.5733 36.48C65.7199 36.48 64.7813 36.544 63.7573 36.672C62.7333 36.8 61.9653 36.9067 61.4533 36.992V64H53.7093V31.616C55.2026 31.1893 57.1439 30.784 59.5333 30.4C61.9653 30.016 64.5253 29.824 67.2133 29.824C69.5173 29.824 71.3946 30.1227 72.8453 30.72C74.3386 31.3173 75.5759 32.1067 76.5573 33.088C77.0266 32.7467 77.6239 32.384 78.3493 32C79.0746 31.616 79.8853 31.2747 80.7812 30.976C81.6773 30.6347 82.6159 30.3573 83.5973 30.144C84.6213 29.9307 85.6453 29.824 86.6693 29.824C89.2719 29.824 91.4053 30.208 93.0693 30.976C94.7759 31.7013 96.0986 32.7467 97.0373 34.112C98.0186 35.4347 98.6799 37.056 99.0213 38.976C99.4053 40.8533 99.5973 42.9227 99.5973 45.184V64H91.8533V46.4C91.8533 42.9013 91.4266 40.384 90.5733 38.848C89.7199 37.2693 88.0773 36.48 85.6453 36.48C84.4079 36.48 83.2346 36.6933 82.1253 37.12C81.0159 37.504 80.1839 37.888 79.6293 38.272C79.9706 39.3387 80.2053 40.4693 80.3333 41.664C80.4613 42.8587 80.5253 44.1387 80.5253 45.504V64H72.7813V46.4ZM131.292 47.168C131.292 43.8827 130.631 41.28 129.308 39.36C128.028 37.44 125.98 36.48 123.164 36.48C121.884 36.48 120.668 36.672 119.516 37.056C118.407 37.44 117.511 37.8667 116.828 38.336V57.6C117.383 57.728 118.087 57.856 118.94 57.984C119.836 58.0693 120.903 58.112 122.14 58.112C124.999 58.112 127.239 57.152 128.86 55.232C130.482 53.2693 131.292 50.5813 131.292 47.168ZM139.228 47.296C139.228 49.984 138.823 52.416 138.012 54.592C137.244 56.7253 136.114 58.56 134.62 60.096C133.17 61.632 131.399 62.8053 129.308 63.616C127.218 64.4267 124.85 64.832 122.204 64.832C119.644 64.832 117.191 64.64 114.844 64.256C112.54 63.872 110.62 63.4453 109.084 62.976V15.616L116.828 14.336V31.68C117.724 31.2107 118.812 30.784 120.092 30.4C121.415 30.016 122.866 29.824 124.444 29.824C126.791 29.824 128.882 30.2507 130.716 31.104C132.594 31.9147 134.151 33.088 135.388 34.624C136.626 36.16 137.564 38.016 138.204 40.192C138.887 42.3253 139.228 44.6933 139.228 47.296ZM168.329 25.728C163.764 25.728 160.265 27.1573 157.833 30.016C155.444 32.832 154.249 36.7573 154.249 41.792C154.249 44.1813 154.527 46.3787 155.081 48.384C155.679 50.3467 156.532 52.032 157.641 53.44C158.793 54.848 160.201 55.9573 161.865 56.768C163.572 57.536 165.556 57.92 167.817 57.92C169.225 57.92 170.441 57.8773 171.465 57.792C172.489 57.664 173.3 57.5147 173.897 57.344V41.408H181.961V62.72C180.852 63.1467 178.975 63.616 176.329 64.128C173.684 64.64 170.633 64.896 167.177 64.896C163.977 64.896 161.055 64.384 158.409 63.36C155.764 62.336 153.503 60.8427 151.625 58.88C149.791 56.9173 148.361 54.5067 147.337 51.648C146.313 48.7893 145.801 45.504 145.801 41.792C145.801 38.08 146.356 34.7947 147.465 31.936C148.617 29.0773 150.175 26.6667 152.137 24.704C154.1 22.6987 156.404 21.184 159.049 20.16C161.695 19.136 164.511 18.624 167.497 18.624C169.545 18.624 171.359 18.7733 172.937 19.072C174.559 19.328 175.945 19.6267 177.097 19.968C178.249 20.3093 179.188 20.672 179.913 21.056C180.681 21.44 181.215 21.7173 181.513 21.888L179.081 28.48C177.801 27.712 176.201 27.072 174.281 26.56C172.404 26.0053 170.42 25.728 168.329 25.728Z" fill="white"/>
</g>
<defs>
<clipPath id="clip0_1_7">
<rect width="200" height="80" fill="white"/>
</clipPath>
</defs>
</svg>
